<?xml version="1.0" encoding="utf-8"?>
<!-- Generator: Adobe Illustrator 23.0.6, SVG Export Plug-In . SVG Version: 6.00 Build 0)  -->
<svg version="1.1" id="Layer_1" xmlns="http://www.w3.org/2000/svg" xmlns:xlink="http://www.w3.org/1999/xlink" x="0px" y="0px"
	 viewBox="0 0 322.8 80" style="enable-background:new 0 0 322.8 80;" xml:space="preserve">
<style type="text/css">
	.st0{fill:#F8E16C;}
	.st1{fill:#FFFFFF;}
</style>
<path class="st0" d="M68.3,11.7C44,0,33.4-7.4,14.3,11.7c-19.1,19.1-19.1,34.9,0,54s34.9,19.1,54,0C87.4,46.6,94.3,24.1,68.3,11.7z
	 M57.8,36.2v18h-36v-18l18-18v18l18-18V36.2z"/>
<g>
	<path class="st1" d="M121.8,18.3h10.5l8.6,13.9l8.6-13.9h10.5v35.8H150V33.5l-9.1,14h-0.2l-9.1-13.9v20.5h-9.8L121.8,18.3
		L121.8,18.3z"/>
	<path class="st1" d="M179.8,54.8c-2.2,0-4.3-0.4-6.1-1.1s-3.5-1.8-4.8-3.1c-1.4-1.3-2.4-2.8-3.2-4.6s-1.1-3.6-1.1-5.6v-0.1
		c0-2,0.4-3.8,1.1-5.6c0.8-1.8,1.8-3.3,3.2-4.6c1.4-1.3,3-2.4,4.9-3.1c1.9-0.8,3.9-1.1,6.1-1.1s4.3,0.4,6.1,1.1s3.5,1.8,4.8,3.1
		c1.4,1.3,2.4,2.8,3.2,4.6c0.8,1.7,1.1,3.6,1.1,5.6v0.1c0,2-0.4,3.8-1.1,5.6c-0.8,1.8-1.8,3.3-3.2,4.6c-1.4,1.3-3,2.3-4.9,3.1
		C184.1,54.4,182,54.8,179.8,54.8z M179.9,46.5c0.9,0,1.7-0.2,2.4-0.5s1.3-0.8,1.8-1.3c0.5-0.6,0.9-1.2,1.1-2
		c0.3-0.7,0.4-1.5,0.4-2.3v-0.1c0-0.8-0.1-1.6-0.4-2.4c-0.3-0.7-0.7-1.4-1.2-2c-0.5-0.6-1.1-1-1.9-1.3s-1.5-0.5-2.4-0.5
		c-0.9,0-1.7,0.2-2.4,0.5s-1.3,0.8-1.8,1.3s-0.9,1.2-1.1,2c-0.3,0.7-0.4,1.5-0.4,2.3v0.1c0,0.8,0.1,1.6,0.4,2.4
		c0.3,0.7,0.7,1.4,1.2,2c0.5,0.6,1.1,1,1.9,1.3C178.3,46.3,179.1,46.5,179.9,46.5z"/>
	<path class="st1" d="M199.3,26.4h9.8v3.9c0.4-0.6,0.9-1.1,1.5-1.7c0.5-0.5,1.1-1,1.8-1.4c0.7-0.4,1.4-0.7,2.2-1
		c0.8-0.3,1.7-0.4,2.7-0.4c3,0,5.3,0.9,7,2.7s2.5,4.3,2.5,7.5v18.1h-9.8v-15c0-1.5-0.4-2.7-1.1-3.5c-0.7-0.8-1.6-1.2-2.8-1.2
		c-1.2,0-2.1,0.4-2.9,1.2c-0.8,0.8-1.1,2-1.1,3.5v15h-9.8L199.3,26.4L199.3,26.4z"/>
	<path class="st1" d="M245.1,54.8c-2.1,0-4-0.4-5.8-1.2s-3.3-1.8-4.6-3.1s-2.3-2.8-3-4.6c-0.7-1.8-1.1-3.6-1.1-5.5v-0.1
		c0-2,0.4-3.8,1.1-5.5c0.7-1.8,1.8-3.3,3.1-4.6c1.3-1.3,2.9-2.4,4.7-3.1c1.8-0.8,3.8-1.1,6-1.1c2.9,0,5.2,0.6,7.2,1.7
		c1.9,1.1,3.5,2.6,4.7,4.5l-6.6,4.9c-0.7-0.9-1.4-1.6-2.2-2.2c-0.8-0.5-1.8-0.8-3-0.8c-0.8,0-1.5,0.2-2.2,0.5
		c-0.7,0.3-1.2,0.8-1.7,1.3s-0.9,1.2-1.1,1.9c-0.3,0.7-0.4,1.5-0.4,2.4v0.1c0,0.9,0.1,1.7,0.4,2.5s0.6,1.4,1.1,2
		c0.5,0.6,1.1,1,1.7,1.3c0.7,0.3,1.4,0.5,2.2,0.5c1.2,0,2.1-0.3,2.9-0.8c0.8-0.5,1.6-1.2,2.4-2.1l6.5,4.7c-1.3,1.9-2.9,3.5-4.9,4.6
		C250.6,54.2,248.1,54.8,245.1,54.8z"/>
	<path class="st1" d="M260.8,16.7h9.8v13.5c0.9-1.2,2-2.2,3.3-3.1c1.3-0.9,3-1.3,4.9-1.3c3,0,5.3,0.9,7,2.7c1.7,1.8,2.5,4.3,2.5,7.5
		v18.1h-9.8v-15c0-1.5-0.4-2.7-1.1-3.5c-0.7-0.8-1.6-1.2-2.8-1.2c-1.2,0-2.1,0.4-2.9,1.2s-1.1,2-1.1,3.5v15h-9.8L260.8,16.7
		L260.8,16.7z"/>
	<path class="st1" d="M307.4,54.8c-2.2,0-4.3-0.4-6.1-1.1s-3.5-1.8-4.8-3.1c-1.4-1.3-2.4-2.8-3.2-4.6s-1.1-3.6-1.1-5.6v-0.1
		c0-2,0.4-3.8,1.1-5.6c0.8-1.8,1.8-3.3,3.2-4.6c1.4-1.3,3-2.4,4.9-3.1c1.9-0.8,3.9-1.1,6.1-1.1s4.3,0.4,6.1,1.1s3.5,1.8,4.8,3.1
		c1.4,1.3,2.4,2.8,3.2,4.6c0.8,1.7,1.1,3.6,1.1,5.6v0.1c0,2-0.4,3.8-1.1,5.6c-0.8,1.8-1.8,3.3-3.2,4.6c-1.4,1.3-3,2.3-4.9,3.1
		C311.7,54.4,309.6,54.8,307.4,54.8z M307.5,46.5c0.9,0,1.7-0.2,2.4-0.5s1.3-0.8,1.8-1.3s0.9-1.2,1.1-2s0.4-1.5,0.4-2.3v-0.1
		c0-0.8-0.1-1.6-0.4-2.4s-0.7-1.4-1.2-2c-0.5-0.6-1.1-1-1.9-1.3s-1.5-0.5-2.4-0.5c-0.9,0-1.7,0.2-2.4,0.5s-1.3,0.8-1.8,1.3
		s-0.9,1.2-1.1,2s-0.4,1.5-0.4,2.3v0.1c0,0.8,0.1,1.6,0.4,2.4c0.3,0.7,0.7,1.4,1.2,2c0.5,0.6,1.1,1,1.9,1.3
		C305.9,46.3,306.7,46.5,307.5,46.5z"/>
</g>
</svg>
